<svg viewBox="0 0 100 100" fill="none" xmlns="http://www.w3.org/2000/svg">
<path d="M65.0001 2C69.6765 1.99953 74.2593 3.31075 78.2278 5.78466C82.1963 8.25858 85.3913 11.796 87.4499 15.995L87.9199 17H94.9998C95.8468 17 96.6799 17.2151 97.421 17.6252C98.1621 18.0353 98.7869 18.627 99.2367 19.3447C99.6865 20.0624 99.9466 20.8826 99.9926 21.7284C100.039 22.5741 99.869 23.4177 99.4997 24.18L99.1597 24.775L91.3998 36.41C90.8048 37.3046 90.5138 38.3671 90.5698 39.44L90.6398 40.08L91.3448 43.95C96.2898 71.14 75.805 96.205 48.3803 96.98L47.0703 97H5.0007C4.09549 97.0001 3.20723 96.7545 2.43068 96.2894C1.65413 95.8242 1.01842 95.157 0.591372 94.3588C0.164328 93.5607 -0.0380284 92.6616 0.00588918 91.7574C0.0498067 90.8533 0.338351 89.978 0.84074 89.225L20.8005 59.175L30.8604 44.2L38.0654 33.385C39.3271 31.4946 40.0005 29.2728 40.0003 27C40.0003 20.3696 42.6342 14.0107 47.3226 9.32233C52.011 4.63392 58.3697 2 65.0001 2ZM65.0001 12C61.1741 11.9998 57.4926 13.4616 54.7089 16.0864C51.9252 18.7112 50.2497 22.3005 50.0252 26.12L50.0002 27C50.0009 30.4838 49.155 33.9156 47.5353 37C52.1704 37.0093 56.6126 38.8571 59.8869 42.138C63.1612 45.4189 65.0001 49.8648 65.0001 54.5C65.0001 61.34 61.6251 66.65 57.0902 70.635C52.6452 74.535 46.8353 77.415 41.0903 79.665C36.9604 81.28 32.6604 82.645 28.6455 83.84L18.9206 86.665L17.8006 87H47.0653C68.905 87 85.4099 67.225 81.4999 45.74L80.7999 41.87C80.1036 38.0455 80.9192 34.0999 83.0749 30.865L85.6549 27C82.9549 27 80.2949 26.23 79.5249 23.25C78.6935 20.0299 76.8156 17.1775 74.1864 15.1411C71.5571 13.1046 68.3257 11.9997 65.0001 12ZM47.5003 47C46.1453 47 44.1853 47.35 42.3203 48.045C40.4453 48.745 39.4103 49.52 39.0504 49.935L22.1305 75.32C27.1205 73.885 32.4554 72.305 37.4454 70.35C42.7803 68.265 47.3353 65.89 50.4902 63.12C53.5502 60.435 55.0002 57.66 55.0002 54.5C55.0002 52.5109 54.21 50.6032 52.8035 49.1967C51.397 47.7902 49.4894 47 47.5003 47ZM65.0001 22C66.3262 22 67.5979 22.5268 68.5356 23.4645C69.4733 24.4021 70 25.6739 70 27C70 28.3261 69.4733 29.5979 68.5356 30.5355C67.5979 31.4732 66.3262 32 65.0001 32C63.674 32 62.4023 31.4732 61.4646 30.5355C60.5269 29.5979 60.0001 28.3261 60.0001 27C60.0001 25.6739 60.5269 24.4021 61.4646 23.4645C62.4023 22.5268 63.674 22 65.0001 22Z" fill="currentColor"/>
</svg>
