<svg viewBox="0 0 130 150" fill="none" xmlns="http://www.w3.org/2000/svg">
<path d="M41.75 90.5C41.75 102.978 52.4217 106 65.589 106C87.9865 106 95.3877 93.0807 80.4845 67.25C59.6292 90.5 56.6455 54.3307 59.6292 44C50.6857 59.5 41.75 74.0622 41.75 90.5Z" stroke="currentColor" stroke-width="9" stroke-linecap="round" stroke-linejoin="round"/>
<path d="M65 106C89.459 106 103.75 89.7405 103.75 61.9257C103.75 34.111 65 5.25 65 5.25C65 5.25 26.25 34.1032 26.25 61.9257C26.25 89.7482 40.541 106 65 106Z" stroke="currentColor" stroke-width="9" stroke-linecap="round" stroke-linejoin="round"/>
<path d="M5.11572 145.292L124.884 113.207M5.11572 113.207L65 129.25M124.884 145.292L94.946 137.271" stroke="currentColor" stroke-width="9" stroke-linecap="round"/>
</svg>
