<svg viewBox="0 0 100 99" fill="none" xmlns="http://www.w3.org/2000/svg">
<path d="M91.2058 45.865C91.2058 44.8993 90.4471 44.1406 89.4815 44.1406C88.5158 44.1406 87.7571 44.8993 87.7571 45.865V49.3136C87.7571 50.2793 88.5158 51.038 89.4815 51.038C90.4471 51.038 91.2058 50.2793 91.2058 49.3136V45.865Z" fill="currentColor"/>
<path d="M84.5844 63.1085C83.2049 63.1085 81.9634 62.5808 81.0323 61.7187V66.4192C81.0323 67.2124 81.3427 67.9366 81.8944 68.4884L87.6537 74.2477C88.6539 75.2478 88.6539 76.9032 87.6537 77.9033C87.1364 78.4206 86.4812 78.662 85.8259 78.662C85.1707 78.662 84.5154 78.4206 83.9981 77.9378L78.2388 72.1785C76.7214 70.6266 75.8593 68.5919 75.8593 66.4192V63.005C75.3075 63.074 74.7327 63.1085 74.1349 63.1085C73.4222 63.1085 72.721 63.0613 72.0312 62.9671V76.041C72.0312 76.727 71.7587 77.3849 71.2737 77.8699C70.7886 78.355 70.1307 78.6275 69.4447 78.6275C68.7587 78.6275 68.1008 78.355 67.6158 77.8699C67.1307 77.3849 66.8582 76.727 66.8582 76.041V61.3841H59.5987C60.3954 63.0368 60.5241 64.9329 59.9582 66.6781C59.3923 68.4233 58.1754 69.8831 56.5606 70.7538C54.9457 71.6245 53.0574 71.8391 51.2883 71.3529C49.5193 70.8667 48.0058 69.7172 47.0628 68.1435L43.0313 61.3841H27.5778V76.041C27.5778 77.455 26.4052 78.6275 24.9913 78.6275C23.5773 78.6275 22.4048 77.455 22.4048 76.041V61.3841H14.5418C11.5414 61.3841 9.40324 58.4872 10.2999 55.6248C10.8262 54.0037 11.5686 52.4609 12.507 51.0381C7.64103 49.0856 3.54816 45.5935 0.853968 41.0956C-1.51872 37.1261 1.33333 32.0704 5.95456 32.0704H22.4048V26.2904C22.3684 25.884 22.4273 25.4747 22.577 25.0951C22.7267 24.7155 22.9629 24.3761 23.2669 24.1039C23.5198 23.8759 23.8153 23.7002 24.1364 23.5871C24.4576 23.474 24.7979 23.4257 25.1379 23.4449C25.4778 23.4642 25.8106 23.5506 26.1169 23.6992C26.4232 23.8479 26.697 24.0557 26.9225 24.3108L33.8302 32.0704H75.4109V32.1255C77.4146 32.298 79.1079 32.8843 80.7288 33.7637L81.0323 33.4602V29.8287C81.0323 26.3111 78.1699 23.4487 74.6522 23.4487H37.9238C36.9582 23.4487 36.1995 22.69 36.1995 21.7243C36.1995 20.7587 36.9582 20 37.9238 20H74.6522C80.0666 20 84.481 24.4143 84.481 29.8287V32.0704H84.6189C93.1406 32.0704 100 39.0333 100 47.5894C100 56.1456 93.1406 63.1085 84.6189 63.1085H84.5844ZM82.7566 37.4158V57.763C82.752 58.0076 82.7957 58.2507 82.8851 58.4784C82.9745 58.7061 83.1078 58.9139 83.2776 59.09C83.4473 59.2662 83.6501 59.4072 83.8743 59.5049C84.0985 59.6027 84.3398 59.6553 84.5844 59.6598H84.6189C91.2024 59.6598 96.5513 54.2764 96.5513 47.5894C96.5513 40.9024 91.2024 35.519 84.6189 35.519H84.5844C84.3398 35.5235 84.0985 35.5762 83.8743 35.6739C83.6501 35.7717 83.4473 35.9127 83.2776 36.0888C83.1078 36.2649 82.9745 36.4728 82.8851 36.7005C82.7957 36.9282 82.752 37.1713 82.7566 37.4158ZM49.1803 49.3138H58.7124C58.6481 48.7482 58.6159 48.1734 58.6159 47.5894C58.6156 45.2751 59.133 42.99 60.1301 40.9015C61.1272 38.813 62.5788 36.974 64.3786 35.519H36.8995L49.1803 49.3138ZM35.8339 49.3138L27.6054 35.519H27.5778V49.3138H35.8339ZM22.4048 35.519H5.95456C4.0233 35.519 2.80937 37.6365 3.81293 39.3229C5.63774 42.3689 8.22049 44.8901 11.3095 46.641C14.3985 48.3919 17.8884 49.3128 21.4391 49.3138H22.4048V35.519Z" fill="currentColor"/>
</svg>
