<svg viewBox="0 0 87 69" fill="none" xmlns="http://www.w3.org/2000/svg">
<path d="M61.4688 0.15625C59.5374 0.161691 57.6429 0.685866 55.9834 1.67398C54.3239 2.6621 52.9603 4.07786 52.0352 5.77328C50.8133 6.48844 48.3587 8.04453 45.6347 11.0489C42.2781 11.1064 36.0178 11.358 28.8986 13.6328C21.2906 16.0622 13.1364 20.9892 8.57234 30.0311C8.53281 30.1281 8.39266 30.1569 8.34953 30.2539C8.16625 30.4516 6.42688 32.2484 4.52938 35.0839C2.55281 38.0595 0.375 41.9623 0.375 46.5372C0.375 49.8363 1.525 53.1497 3.96875 55.5216C4.77016 56.3086 5.80875 56.8548 6.89047 57.3184C6.46641 57.8827 6.01719 58.4289 5.65422 59.0039C4.82766 60.2977 3.96875 61.2069 3.96875 63.6075C3.96875 65.1097 5.06484 66.5436 5.87703 67.0898C6.68922 67.6361 7.26781 67.8445 7.90031 67.9883C9.14734 68.2686 10.4519 68.2973 11.9433 68.3261C14.9333 68.3656 18.8217 68.2003 23.1737 67.9883C31.8922 67.5678 42.5441 67.1869 50.1269 68.4375L51.2481 61.25C47.6544 60.6606 43.6653 60.4234 39.6834 60.3516C41.8864 58.0084 43.5 55.0723 43.5 51.4786C43.5 45.7394 39.7948 41.3873 35.5255 39.1269C31.2597 36.8628 26.3039 36.0938 21.9375 36.0938V43.2812C25.3192 43.2812 29.3766 44.0539 32.1581 45.5273C34.9361 47.0008 36.3125 48.5748 36.3125 51.4786C36.3125 53.8253 34.4042 56.0427 31.2597 57.8827C28.1152 59.7191 23.9177 60.6858 22.6131 60.6858V60.8008C18.7211 60.9805 15.4113 61.1386 12.9531 61.1386C13.3305 60.6355 13.6719 60.1827 14.078 59.6759C15.8461 57.5017 17.6717 55.633 17.6717 55.633L12.3889 50.6916L12.2811 50.918C10.4698 51.4498 9.68281 51.0977 8.91016 50.3573C8.1375 49.617 7.5625 48.0825 7.5625 46.5372C7.5625 44.6289 8.98203 41.5562 10.5956 39.1269C12.2092 36.6975 13.7402 34.9689 13.7402 34.9689L14.1894 34.5197L14.4122 33.9591C17.7544 26.5487 24.3812 22.6459 31.1483 20.4825C37.9081 18.3227 44.5961 18.125 47.0938 18.125H48.8906L50.0155 16.6659C50.5042 15.9903 51.0397 15.5159 51.5859 14.9805C53.2139 18.8977 57.0053 21.7188 61.4688 21.7188C67.1828 21.7188 71.8295 17.1439 72.1386 11.4981C73.7809 11.9078 75.4089 12.4541 76.7422 13.1836C77.8922 13.8161 78.8194 14.5169 79.3261 14.9805C79.2973 15.1242 79.2686 15.0523 79.2111 15.2069C78.9739 15.8645 78.4816 16.6372 77.8634 17.5644C76.6164 19.4008 74.5536 21.5211 70.9023 22.955L68.6562 23.8534V26.3223C68.6562 31.3644 68.207 43.7592 61.2423 48.6719L65.4003 54.5117C75.4916 47.3817 75.6173 34.5197 75.6173 28.457C79.3656 26.5164 82.158 24.0475 83.8183 21.6073C84.7994 20.1483 85.5145 18.7862 85.9494 17.5644C86.3878 16.3425 86.625 15.3722 86.625 14.1934C86.625 11.4155 85.2486 10.7111 84.1525 9.70125C82.9248 8.60379 81.5669 7.66117 80.1095 6.89453C77.1914 5.30969 73.515 4.04469 69.5547 3.86141C68.548 2.70418 67.306 1.77507 65.9116 1.13612C64.5172 0.497183 63.0025 0.163121 61.4688 0.15625ZM61.4688 7.34375C63.492 7.34375 65.0625 8.91781 65.0625 10.9375C65.0625 12.9572 63.4884 14.5312 61.4688 14.5312C59.4491 14.5312 57.875 12.9572 57.875 10.9375C57.875 8.91781 59.4491 7.34375 61.4688 7.34375ZM54.2812 33.8477C52.2368 36.7178 50.8906 40.0256 50.3497 43.5077C49.9184 46.3 50.0262 48.8839 50.0155 49.0061V49.1211C50.0155 50.0627 50.1808 50.1884 50.2383 50.3573L50.3497 50.6916C50.4359 50.918 50.5761 51.13 50.6875 51.3672C50.8995 51.8308 51.1367 52.377 51.4745 53.0527C52.1609 54.4003 53.1277 56.1684 54.1698 57.9941C56.2614 61.6273 58.353 65.39 61.1309 67.7619C61.555 68.1452 62.0426 68.4087 62.5936 68.5525C64.2467 68.9298 64.9798 68.495 65.7381 68.3261C66.4964 68.1572 67.2367 68.017 68.0956 67.8769C69.7919 67.6109 71.8834 67.4959 74.8339 68.3261L76.8536 61.3614C73.6391 60.4595 70.2667 60.2681 66.9708 60.8008C66.1011 60.9445 65.5261 61.1242 64.9511 61.25C63.952 60.0713 62.0438 57.3616 60.3439 54.4003C59.2296 52.451 58.1808 50.4649 57.1994 48.4455C57.1886 48.4203 57.2138 48.3484 57.1994 48.3377C57.2138 47.2128 57.1886 46.1886 57.4258 44.6289C57.7348 42.6523 58.468 40.3488 60.1211 38.002L54.2812 33.8477Z" fill="currentColor"/>
</svg>
