<svg viewBox="0 0 130 130" fill="none" xmlns="http://www.w3.org/2000/svg">
<path d="M99.6875 92.7511H30.3125C22.8959 92.7041 15.7584 89.9171 10.2723 84.926C4.78624 79.9349 1.33882 73.0919 0.592871 65.7127C-0.153079 58.3336 1.8551 50.9391 6.23131 44.951C10.6075 38.9629 17.0428 34.8039 24.3 33.2736C26.2967 23.9612 31.4264 15.6152 38.8332 9.62811C46.2401 3.64102 55.476 0.375 65 0.375C74.524 0.375 83.76 3.64102 91.1668 9.62811C98.5737 15.6152 103.703 23.9612 105.7 33.2736C112.957 34.8039 119.393 38.9629 123.769 44.951C128.145 50.9391 130.153 58.3336 129.407 65.7127C128.661 73.0919 125.214 79.9349 119.728 84.926C114.242 89.9171 107.104 92.7041 99.6875 92.7511ZM65 9.50107C57.108 9.50893 49.4907 12.3992 43.5799 17.6286C37.6692 22.858 33.8721 30.0664 32.9025 37.8986L32.625 41.8761H28.6475C23.1277 42.0969 17.9217 44.5014 14.1747 48.5606C10.4277 52.6198 8.44672 58.0013 8.66752 63.5211C8.88831 69.0409 11.2928 74.2469 15.352 77.9939C19.4112 81.7409 24.7927 83.7219 30.3125 83.5011H99.6875C105.207 83.7219 110.589 81.7409 114.648 77.9939C118.707 74.2469 121.112 69.0409 121.333 63.5211C121.553 58.0013 119.572 52.6198 115.825 48.5606C112.078 44.5014 106.872 42.0969 101.353 41.8761H97.375L96.9125 38.0836C95.9887 30.2493 92.2362 23.022 86.3601 17.759C80.4839 12.496 72.8883 9.55947 65 9.50107ZM55.75 129.751C55.0245 129.76 54.3085 129.585 53.6688 129.242C52.5795 128.688 51.7539 127.725 51.3726 126.563C50.9913 125.402 51.0852 124.137 51.6338 123.045L60.8838 104.545C61.1283 103.958 61.4912 103.427 61.95 102.987C62.4087 102.546 62.9534 102.205 63.5499 101.985C64.1465 101.764 64.7821 101.669 65.4171 101.705C66.052 101.742 66.6727 101.908 67.2403 102.195C67.8078 102.482 68.3101 102.883 68.7157 103.373C69.1213 103.863 69.4216 104.431 69.5976 105.042C69.7737 105.654 69.8218 106.294 69.739 106.925C69.6562 107.556 69.4442 108.162 69.1163 108.707L59.8663 127.207C59.4819 127.97 58.8939 128.611 58.1673 129.06C57.4408 129.509 56.6041 129.748 55.75 129.751ZM83.5 129.751C82.7745 129.76 82.0585 129.585 81.4188 129.242C80.3295 128.688 79.5039 127.725 79.1226 126.563C78.7413 125.402 78.8352 124.137 79.3838 123.045L88.6338 104.545C88.8783 103.958 89.2412 103.427 89.7 102.987C90.1587 102.546 90.7034 102.205 91.2999 101.985C91.8965 101.764 92.5321 101.669 93.1671 101.705C93.802 101.742 94.4227 101.908 94.9903 102.195C95.5578 102.482 96.0601 102.883 96.4657 103.373C96.8713 103.863 97.1716 104.431 97.3476 105.042C97.5237 105.654 97.5718 106.294 97.489 106.925C97.4062 107.556 97.1942 108.162 96.8663 108.707L87.6163 127.207C87.2319 127.97 86.6439 128.611 85.9173 129.06C85.1908 129.509 84.3541 129.748 83.5 129.751ZM28 129.751C27.2745 129.76 26.5585 129.585 25.9188 129.242C24.8295 128.688 24.0039 127.725 23.6226 126.563C23.2413 125.402 23.3352 124.137 23.8838 123.045L33.1338 104.545C33.3783 103.958 33.7412 103.427 34.2 102.987C34.6587 102.546 35.2034 102.205 35.7999 101.985C36.3965 101.764 37.0321 101.669 37.6671 101.705C38.302 101.742 38.9227 101.908 39.4903 102.195C40.0578 102.482 40.5601 102.883 40.9657 103.373C41.3713 103.863 41.6716 104.431 41.8476 105.042C42.0237 105.654 42.0718 106.294 41.989 106.925C41.9062 107.556 41.6942 108.162 41.3663 108.707L32.1163 127.207C31.7319 127.97 31.1439 128.611 30.4173 129.06C29.6908 129.509 28.8541 129.748 28 129.751Z" fill="currentColor"/>
</svg>
