<svg viewBox="0 0 142 139" fill="none" xmlns="http://www.w3.org/2000/svg">
<path d="M71 119.565C72.8786 119.565 74.6803 120.232 76.0087 121.42C77.337 122.608 78.0833 124.219 78.0833 125.898V132.232C78.0833 133.911 77.337 135.522 76.0087 136.71C74.6803 137.898 72.8786 138.565 71 138.565C69.1214 138.565 67.3197 137.898 65.9913 136.71C64.6629 135.522 63.9167 133.911 63.9167 132.232V125.898C63.9167 124.219 64.6629 122.608 65.9913 121.42C67.3197 120.232 69.1214 119.565 71 119.565ZM92.25 106.898C93.9849 106.899 95.6595 107.468 96.956 108.499C98.2525 109.53 99.0808 110.95 99.2837 112.491L99.3333 113.232V119.565C99.3313 121.179 98.64 122.732 97.4007 123.906C96.1613 125.08 94.4674 125.786 92.6651 125.881C90.8628 125.975 89.0881 125.451 87.7037 124.415C86.3192 123.379 85.4295 121.909 85.2162 120.306L85.1667 119.565V113.232C85.1667 111.552 85.9129 109.941 87.2413 108.753C88.5697 107.566 90.3714 106.898 92.25 106.898ZM49.75 106.898C51.6286 106.898 53.4303 107.566 54.7587 108.753C56.087 109.941 56.8333 111.552 56.8333 113.232V119.565C56.8333 121.245 56.087 122.856 54.7587 124.043C53.4303 125.231 51.6286 125.898 49.75 125.898C47.8714 125.898 46.0697 125.231 44.7413 124.043C43.4129 122.856 42.6667 121.245 42.6667 119.565V113.232C42.6667 111.552 43.4129 109.941 44.7413 108.753C46.0697 107.566 47.8714 106.898 49.75 106.898ZM71 94.2318C72.8786 94.2318 74.6803 94.899 76.0087 96.0868C77.337 97.2745 78.0833 98.8854 78.0833 100.565V106.898C78.0833 108.578 77.337 110.189 76.0087 111.377C74.6803 112.565 72.8786 113.232 71 113.232C69.1214 113.232 67.3197 112.565 65.9913 111.377C64.6629 110.189 63.9167 108.578 63.9167 106.898V100.565C63.9167 98.8854 64.6629 97.2745 65.9913 96.0868C67.3197 94.899 69.1214 94.2318 71 94.2318ZM67.4583 11.8984C76.8258 11.8959 85.9713 14.4481 93.6741 19.2146C101.377 23.981 107.27 30.7348 110.568 38.5744C118.233 40.4575 125.155 44.2247 130.547 49.4482C135.938 54.6716 139.584 61.1422 141.07 68.125C142.555 75.1079 141.822 82.3233 138.952 88.952C136.082 95.5808 131.19 101.357 124.833 105.625C124.092 106.145 123.242 106.527 122.333 106.75C121.425 106.972 120.475 107.03 119.541 106.921C118.607 106.811 117.707 106.536 116.893 106.111C116.08 105.687 115.369 105.121 114.803 104.448C114.236 103.775 113.826 103.008 113.595 102.191C113.365 101.374 113.319 100.524 113.46 99.6917C113.601 98.8588 113.927 98.0596 114.418 97.3406C114.909 96.6217 115.555 95.9976 116.319 95.5048C120.758 92.5272 124.121 88.45 125.992 83.779C127.863 79.1081 128.159 74.0488 126.843 69.2288C125.528 64.4088 122.659 60.0401 118.592 56.6646C114.525 53.2892 109.439 51.0554 103.966 50.2404C102.612 50.04 101.352 49.4958 100.335 48.6727C99.3173 47.8496 98.5862 46.7823 98.2283 45.5981C96.1437 38.6493 91.1969 32.6625 84.3807 28.8393C77.5645 25.016 69.3833 23.6391 61.4789 24.9849C53.5745 26.3308 46.5319 30.2997 41.7643 36.0953C36.9967 41.8909 34.857 49.0843 35.7746 56.2318C35.9629 57.77 35.5212 59.3171 34.5314 60.5865C33.5416 61.8558 32.0706 62.7613 30.3912 63.1351C26.2886 64.0612 22.5883 66.0606 19.7637 68.8775C16.9391 71.6945 15.1186 75.2009 14.5352 78.9481C13.9518 82.6952 14.6321 86.5128 16.4888 89.9125C18.3456 93.3121 21.2945 96.1391 24.9583 98.0318C25.7905 98.4355 26.5237 98.9843 27.1146 99.6457C27.7055 100.307 28.1421 101.068 28.3986 101.883C28.655 102.698 28.7262 103.55 28.6079 104.39C28.4895 105.23 28.1841 106.04 27.7096 106.773C27.235 107.505 26.6011 108.145 25.8452 108.655C25.0893 109.165 24.2267 109.534 23.3086 109.74C22.3904 109.947 21.4352 109.987 20.4995 109.858C19.5638 109.728 18.6666 109.433 17.8608 108.988C12.185 106.058 7.5302 101.776 4.41438 96.6202C1.29855 91.4644 -0.156024 85.6367 0.212545 79.7857C0.581115 73.9346 2.75837 68.2898 6.50198 63.4794C10.2456 58.669 15.4087 54.8819 21.4167 52.5394C21.5713 41.7127 26.4903 31.3764 35.1081 23.7694C43.7258 16.1625 55.3485 11.8976 67.4583 11.8984ZM49.75 81.5651C51.6286 81.5651 53.4303 82.2324 54.7587 83.4201C56.087 84.6078 56.8333 86.2187 56.8333 87.8984V94.2318C56.8333 95.9115 56.087 97.5224 54.7587 98.7101C53.4303 99.8978 51.6286 100.565 49.75 100.565C47.8714 100.565 46.0697 99.8978 44.7413 98.7101C43.4129 97.5224 42.6667 95.9115 42.6667 94.2318V87.8984C42.6667 86.2187 43.4129 84.6078 44.7413 83.4201C46.0697 82.2324 47.8714 81.5651 49.75 81.5651ZM92.25 81.5651C93.9849 81.5653 95.6595 82.1348 96.956 83.1656C98.2525 84.1964 99.0808 85.6168 99.2837 87.1574L99.3333 87.8984V94.2318C99.3313 95.846 98.64 97.3986 97.4007 98.5724C96.1613 99.7462 94.4674 100.453 92.6651 100.547C90.8628 100.642 89.0881 100.117 87.7037 99.0814C86.3192 98.0454 85.4295 96.5757 85.2162 94.9728L85.1667 94.2318V87.8984C85.1667 86.2187 85.9129 84.6078 87.2413 83.4201C88.5697 82.2324 90.3714 81.5651 92.25 81.5651Z" fill="currentColor"/>
</svg>
