<svg viewBox="0 0 343 383" fill="none" xmlns="http://www.w3.org/2000/svg">
<path d="M167.706 0.0046744L167.704 0.00760409C148.621 6.40377 139.923 36.3205 143.814 41.326C153.074 53.2377 235.588 58.9911 237.761 84.9578C241.483 129.441 110.522 147.975 131.32 152.427C250.193 177.864 293.198 197.187 297.945 226.412C307.746 286.741 240.056 299.979 248.416 319.626C258.699 343.793 296.369 363.501 342.89 382.389H255.391C240.05 371.229 225.641 357.794 212.899 344.72C207.937 352.949 216.155 367.829 229.646 382.389H187.03C176.065 370.185 157.139 346.196 157.767 326.491C158.653 298.787 198.547 267.663 198.654 267.58C195.771 267.581 142.668 290.722 141.356 324.001C140.424 347.647 166.872 370.68 182.839 382.389H130.13C118.912 364.921 109.008 345.996 100.471 328.149C92.7224 334.349 99.7957 358.012 112.441 382.389H67.3905C65.8286 374.929 65.0333 366.818 65.1727 357.934C66.1419 296.316 107.643 272.872 154.546 253.483C179.601 243.126 -28.5712 189.475 3.33483 147.528C30.087 112.355 74.8424 112.17 155.509 94.6287C163.468 92.898 78.219 62.1783 77.8417 31.9939C77.6219 14.3417 147.626 -0.300123 167.706 0.0046744ZM270.889 226.277C269.169 226.393 231.803 268.744 220.2 277.19C253.259 278.617 274.074 240.97 270.877 226.577C270.97 226.37 270.974 226.27 270.889 226.278V226.277ZM49.3202 162.717C47.4961 162.726 45.7356 162.858 44.0467 163.118C63.3454 175.656 125.249 207.386 148.538 219.916L150.006 206.129C118.509 189.208 76.6857 162.545 49.3202 162.717Z" fill="currentColor"/>
</svg>
