<svg viewBox="0 0 168 168" fill="none" xmlns="http://www.w3.org/2000/svg">
<path d="M84 124.25C76.0393 124.25 68.2574 121.889 61.6383 117.467C55.0192 113.044 49.8603 106.758 46.8138 99.403C43.7674 92.0483 42.9703 83.9554 44.5234 76.1476C46.0764 68.3399 49.9099 61.168 55.539 55.539C61.168 49.9099 68.3399 46.0764 76.1476 44.5234C83.9554 42.9703 92.0483 43.7674 99.403 46.8138C106.758 49.8603 113.044 55.0192 117.467 61.6383C121.889 68.2574 124.25 76.0393 124.25 84C124.231 94.6693 119.985 104.896 112.441 112.441C104.896 119.985 94.6693 124.231 84 124.25ZM84 54.25C78.116 54.25 72.3641 55.9948 67.4718 59.2638C62.5794 62.5328 58.7663 67.1791 56.5146 72.6152C54.2629 78.0513 53.6737 84.033 54.8216 89.8039C55.9695 95.5749 58.803 100.876 62.9636 105.036C67.1242 109.197 72.4251 112.03 78.1961 113.178C83.967 114.326 89.9487 113.737 95.3848 111.485C100.821 109.234 105.467 105.421 108.736 100.528C112.005 95.6359 113.75 89.884 113.75 84C113.732 76.1155 110.591 68.5592 105.016 62.984C99.4408 57.4088 91.8845 54.2685 84 54.25ZM84 35C82.6133 34.9819 81.2884 34.4229 80.3077 33.4423C79.3271 32.4616 78.7681 31.1367 78.75 29.75V19.25C78.75 17.8576 79.3031 16.5223 80.2877 15.5377C81.2723 14.5531 82.6076 14 84 14C85.3924 14 86.7277 14.5531 87.7123 15.5377C88.6969 16.5223 89.25 17.8576 89.25 19.25V29.75C89.2319 31.1367 88.6729 32.4616 87.6923 33.4423C86.7116 34.4229 85.3867 34.9819 84 35ZM84 154C82.6133 153.982 81.2884 153.423 80.3077 152.442C79.3271 151.462 78.7681 150.137 78.75 148.75V138.25C78.75 136.858 79.3031 135.522 80.2877 134.538C81.2723 133.553 82.6076 133 84 133C85.3924 133 86.7277 133.553 87.7123 134.538C88.6969 135.522 89.25 136.858 89.25 138.25V148.75C89.2319 150.137 88.6729 151.462 87.6923 152.442C86.7116 153.423 85.3867 153.982 84 154ZM148.75 89.25H138.25C136.858 89.25 135.522 88.6969 134.538 87.7123C133.553 86.7277 133 85.3924 133 84C133 82.6076 133.553 81.2723 134.538 80.2877C135.522 79.3031 136.858 78.75 138.25 78.75H148.75C150.142 78.75 151.478 79.3031 152.462 80.2877C153.447 81.2723 154 82.6076 154 84C154 85.3924 153.447 86.7277 152.462 87.7123C151.478 88.6969 150.142 89.25 148.75 89.25ZM29.75 89.25H19.25C17.8576 89.25 16.5223 88.6969 15.5377 87.7123C14.5531 86.7277 14 85.3924 14 84C14 82.6076 14.5531 81.2723 15.5377 80.2877C16.5223 79.3031 17.8576 78.75 19.25 78.75H29.75C31.1424 78.75 32.4777 79.3031 33.4623 80.2877C34.4469 81.2723 35 82.6076 35 84C35 85.3924 34.4469 86.7277 33.4623 87.7123C32.4777 88.6969 31.1424 89.25 29.75 89.25ZM45.5 50.75C44.1494 50.6467 42.893 50.0185 42 49L34.37 42C33.869 41.499 33.4716 40.9042 33.2005 40.2497C32.9293 39.5951 32.7898 38.8935 32.7898 38.185C32.7898 37.4765 32.9293 36.7749 33.2005 36.1203C33.4716 35.4658 33.869 34.871 34.37 34.37C34.871 33.869 35.4658 33.4716 36.1203 33.2005C36.7749 32.9293 37.4765 32.7898 38.185 32.7898C38.8935 32.7898 39.5951 32.9293 40.2497 33.2005C40.9042 33.4716 41.499 33.869 42 34.37L49 42C49.8609 42.9625 50.3369 44.2086 50.3369 45.5C50.3369 46.7914 49.8609 48.0375 49 49C48.107 50.0185 46.8506 50.6467 45.5 50.75ZM129.92 135.17C129.23 135.173 128.547 135.039 127.91 134.774C127.273 134.51 126.695 134.121 126.21 133.63L119 126C118.532 125.02 118.379 123.92 118.563 122.85C118.747 121.78 119.257 120.793 120.025 120.025C120.793 119.257 121.78 118.747 122.85 118.563C123.92 118.379 125.02 118.532 126 119L133.63 126C134.613 126.984 135.165 128.319 135.165 129.71C135.165 131.101 134.613 132.436 133.63 133.42C133.163 133.949 132.594 134.377 131.956 134.678C131.318 134.979 130.625 135.146 129.92 135.17ZM122.5 50.75C121.149 50.6467 119.893 50.0185 119 49C118.139 48.0375 117.663 46.7914 117.663 45.5C117.663 44.2086 118.139 42.9625 119 42L126 34.37C127.012 33.3582 128.384 32.7898 129.815 32.7898C131.246 32.7898 132.618 33.3582 133.63 34.37C134.642 35.3818 135.21 36.7541 135.21 38.185C135.21 39.6159 134.642 40.9882 133.63 42L126 49C125.107 50.0185 123.851 50.6467 122.5 50.75ZM38.08 135.17C37.3902 135.173 36.7067 135.039 36.0696 134.774C35.4326 134.51 34.8547 134.121 34.37 133.63C33.3868 132.646 32.8346 131.311 32.8346 129.92C32.8346 128.529 33.3868 127.194 34.37 126.21L42 119C42.9797 118.532 44.0803 118.379 45.1503 118.563C46.2204 118.747 47.2072 119.257 47.9749 120.025C48.7426 120.793 49.2534 121.78 49.437 122.85C49.6205 123.92 49.4679 125.02 49 126L42 133.63C41.4909 134.147 40.8789 134.551 40.2036 134.816C39.5283 135.082 38.8048 135.202 38.08 135.17Z" fill="currentColor"/>
</svg>
