<svg  viewBox="0 0 355 584" fill="none" xmlns="http://www.w3.org/2000/svg">
<path d="M177.5 578V206.112M263.25 440.602C289.325 425.535 310.977 403.864 326.029 377.766C341.082 351.669 349.004 322.065 349 291.932C349.058 247.268 331.659 204.353 300.523 172.356C306.4 153.11 307.686 132.754 304.28 112.921C300.873 93.0876 292.868 74.33 280.907 58.1536C268.945 41.9773 253.361 28.8329 235.405 19.7755C217.449 10.7181 197.622 6 177.514 6C157.407 6 137.579 10.7181 119.623 19.7755C101.667 28.8329 86.0833 41.9773 74.122 58.1536C62.1607 74.33 54.1555 93.0876 50.7488 112.921C47.3422 132.754 48.629 153.11 54.506 172.356C23.3588 204.348 5.95002 247.264 6.00011 291.932C6.00011 355.439 40.5002 410.936 91.75 440.602M177.5 377.752L248.958 306.235M177.5 320.539L106.042 249.022M120.333 578H234.667" stroke="currentColor" stroke-width="20" stroke-linecap="round" stroke-linejoin="round"/>
</svg>
