<svg viewBox="0 0 100 100" fill="none" xmlns="http://www.w3.org/2000/svg">
<path fill-rule="evenodd" clip-rule="evenodd" d="M23.2558 19.1667C23.2558 16.167 24.1424 13.2347 25.8034 10.7405C27.4644 8.24638 29.8252 6.30243 32.5873 5.1545C35.3495 4.00657 38.3889 3.70622 41.3211 4.29143C44.2534 4.87664 46.9469 6.32112 49.0609 8.44222C51.175 10.5633 52.6146 13.2658 53.1979 16.2078C53.7812 19.1498 53.4818 22.1994 52.3377 24.9707C51.1936 27.742 49.2561 30.1108 46.7702 31.7773C44.2844 33.4438 41.3618 34.3333 38.3721 34.3333H8.13953C7.21436 34.3333 6.32708 33.9646 5.67288 33.3082C5.01869 32.6518 4.65116 31.7616 4.65116 30.8333C4.65116 29.9051 5.01869 29.0148 5.67288 28.3585C6.32708 27.7021 7.21436 27.3333 8.13953 27.3333H38.3721C39.9819 27.3333 41.5556 26.8544 42.8942 25.957C44.2327 25.0596 45.276 23.7842 45.892 22.2919C46.5081 20.7997 46.6693 19.1576 46.3552 17.5734C46.0412 15.9893 45.2659 14.5341 44.1276 13.392C42.9893 12.2498 41.5389 11.472 39.96 11.1569C38.3811 10.8418 36.7445 11.0035 35.2572 11.6217C33.7699 12.2398 32.4987 13.2865 31.6043 14.6295C30.7099 15.9725 30.2326 17.5515 30.2326 19.1667V20.8327C30.2326 21.7609 29.865 22.6512 29.2108 23.3075C28.5566 23.9639 27.6694 24.3327 26.7442 24.3327C25.819 24.3327 24.9317 23.9639 24.2775 23.3075C23.6233 22.6512 23.2558 21.7609 23.2558 20.8327V19.1667ZM60.4651 28.5C60.4651 24.5773 61.6244 20.7428 63.7965 17.4812C65.9686 14.2196 69.0559 11.6775 72.6679 10.1764C76.2799 8.67526 80.2545 8.28249 84.089 9.04777C87.9235 9.81304 91.4457 11.702 94.2102 14.4757C96.9748 17.2495 98.8574 20.7834 99.6202 24.6307C100.383 28.478 99.9914 32.4658 98.4953 36.0899C96.9991 39.714 94.4655 42.8115 91.2147 44.9908C87.964 47.1701 84.1422 48.3333 80.2325 48.3333H3.48837C2.5632 48.3333 1.67592 47.9646 1.02172 47.3082C0.367524 46.6518 0 45.7616 0 44.8333C0 43.9051 0.367524 43.0148 1.02172 42.3585C1.67592 41.7021 2.5632 41.3333 3.48837 41.3333H80.2325C82.7623 41.3333 85.2353 40.5807 87.3387 39.1705C89.4421 37.7604 91.0815 35.7561 92.0496 33.4111C93.0177 31.0661 93.271 28.4858 92.7775 25.9963C92.2839 23.5069 91.0657 21.2202 89.2769 19.4255C87.4881 17.6307 85.209 16.4084 82.7279 15.9133C80.2467 15.4181 77.675 15.6722 75.3378 16.6436C73.0006 17.6149 71.0029 19.2598 69.5975 21.3702C68.192 23.4806 67.4419 25.9618 67.4419 28.5V30.8333C67.4419 31.7616 67.0743 32.6518 66.4201 33.3082C65.7659 33.9646 64.8787 34.3333 63.9535 34.3333C63.0283 34.3333 62.141 33.9646 61.4868 33.3082C60.8326 32.6518 60.4651 31.7616 60.4651 30.8333V28.5ZM9.30232 58.8333C9.30232 57.9051 9.66985 57.0148 10.324 56.3585C10.9782 55.7021 11.8655 55.3333 12.7907 55.3333H80.2325C84.1422 55.3333 87.964 56.4965 91.2147 58.6758C94.4655 60.8552 96.9991 63.9527 98.4953 67.5768C99.9914 71.2008 100.383 75.1887 99.6202 79.0359C98.8574 82.8832 96.9748 86.4172 94.2102 89.1909C91.4457 91.9647 87.9235 93.8536 84.089 94.6189C80.2545 95.3842 76.2799 94.9914 72.6679 93.4903C69.0559 91.9891 65.9686 89.447 63.7965 86.1855C61.6244 82.9239 60.4651 79.0893 60.4651 75.1667V72.8333C60.4651 71.9051 60.8326 71.0148 61.4868 70.3585C62.141 69.7021 63.0283 69.3333 63.9535 69.3333C64.8787 69.3333 65.7659 69.7021 66.4201 70.3585C67.0743 71.0148 67.4419 71.9051 67.4419 72.8333V75.1667C67.4419 77.7049 68.192 80.186 69.5975 82.2965C71.0029 84.4069 73.0006 86.0518 75.3378 87.0231C77.675 87.9944 80.2467 88.2486 82.7279 87.7534C85.209 87.2582 87.4881 86.036 89.2769 84.2412C91.0657 82.4464 92.2839 80.1597 92.7775 77.6703C93.271 75.1809 93.0177 72.6005 92.0496 70.2556C91.0815 67.9106 89.4421 65.9063 87.3387 64.4961C85.2353 63.086 82.7623 62.3333 80.2325 62.3333H12.7907C11.8655 62.3333 10.9782 61.9646 10.324 61.3082C9.66985 60.6518 9.30232 59.7616 9.30232 58.8333Z" fill="currentColor"/>
</svg>
